<svg xmlns="http://www.w3.org/2000/svg" viewBox="0 0 104.66000366210938 100"><path fill="#8a5d3b" opacity=".8" d="M17.29 30.87l19.52-10.68L18.06 9.36l-.77 21.51z"></path><path d="M46.32 3.72L18.06 9.36 56 31.29z" fill="#8a5d3b"></path><path fill="#ec1c24" opacity=".8" d="M18.24 70.78l.51-22.24L0 59.36l18.24 11.42z"></path><path d="M9.25 32.07L0 59.36l38-21.92z" fill="#ec1c24"></path><path fill="#d91c5c" opacity=".8" d="M53.29 89.91L34.27 78.35V100l19.02-10.09z"></path><path d="M15.26 78.35l19 21.65V56.15z" fill="#d91c5c"></path><path fill="#26a9e0" opacity=".8" d="M87.37 69.13L67.85 79.81 86.6 90.64l.77-21.51z"></path><path d="M58.34 96.28l28.26-5.64-38-21.93z" fill="#26a9e0"></path><path fill="#84bc3c" opacity=".8" d="M86.42 29.22l-.51 22.24 18.75-10.82-18.24-11.42z"></path><path d="M95.41 67.93l9.25-27.29-38 21.92z" fill="#84bc3c"></path><path fill="#f6921e" opacity=".8" d="M51.37 10.09l19.02 11.56V0L51.37 10.09z"></path><path d="M89.4 21.65L70.39 0v43.85z" fill="#f6921e"></path><path d="M44.32 60.74V39.25c0-2.34 1.18-3.1 3.27-1.89L66.18 48.1c1 .57 1.56 1.26 1.56 1.9s-.59 1.34-1.56 1.9L47.59 62.64c-2.11 1.22-3.27.42-3.27-1.9z" fill="#333"></path></svg>
